<?xml version="1.0" standalone="no"?>
<!DOCTYPE svg PUBLIC "-//W3C//DTD SVG 20010904//EN"
 "http://www.w3.org/TR/2001/REC-SVG-20010904/DTD/svg10.dtd">
<svg version="1.0" xmlns="http://www.w3.org/2000/svg"
 width="1280.000000pt" height="853.000000pt" viewBox="0 0 1280.000000 853.000000"
 preserveAspectRatio="xMidYMid meet">
<metadata>
Created by potrace 1.15, written by Peter Selinger 2001-2017
</metadata>
<g transform="translate(0.000000,853.000000) scale(0.100000,-0.100000)"
fill="#dc3545" stroke="none">
<path d="M6260 7579 c-34 -14 -261 -20 -340 -9 -45 6 -77 6 -103 -2 -25 -8
-44 -8 -60 -1 -30 13 -74 0 -111 -35 -17 -16 -46 -35 -65 -42 -18 -8 -45 -23
-60 -35 -14 -12 -48 -33 -74 -47 -42 -21 -52 -32 -73 -84 l-25 -59 12 -325 c6
-179 10 -341 8 -360 l-4 -35 -65 -2 c-36 0 -71 3 -77 9 -8 7 -398 9 -1145 8
-623 -2 -1365 -3 -1648 -2 -593 0 -565 4 -575 -80 -3 -29 -4 -595 -3 -1257 3
-1187 3 -1204 23 -1215 11 -6 24 -16 30 -23 29 -34 48 -35 1599 -22 1207 10
1531 10 1534 0 3 -9 7 -9 19 1 24 19 362 25 374 7 5 -8 9 -56 9 -106 l0 -93
-47 -1 c-110 -3 -1669 2 -2168 7 -516 6 -541 5 -565 -13 -14 -10 -36 -24 -50
-31 -46 -24 -1134 -1115 -1163 -1167 -11 -20 21 -69 96 -147 128 -132 438
-451 747 -766 l336 -342 1466 0 1466 0 7 -48 c3 -26 3 -241 0 -477 -3 -237 -3
-510 1 -608 l7 -177 788 0 789 0 0 655 0 655 1715 0 1714 0 -2 1224 c-1 673
-4 1226 -7 1229 -6 5 -529 6 -2195 4 -682 -2 -1266 -1 -1297 2 l-58 4 0 107 0
108 473 6 c259 4 884 10 1387 14 838 7 918 9 950 25 59 29 1140 1129 1173
1194 9 17 15 51 14 81 l-2 52 -265 272 c-321 330 -686 695 -834 836 l-110 104
-580 -6 c-320 -3 -959 -7 -1421 -8 l-840 -3 -3 60 c-1 33 -6 142 -10 241 -6
159 -9 185 -26 203 -11 12 -23 45 -27 74 -27 190 -27 187 -58 216 -17 16 -31
36 -31 43 0 8 -10 23 -21 34 -12 10 -32 35 -45 55 -20 33 -29 38 -76 44 -29 4
-71 15 -93 25 -25 11 -79 20 -145 23 -58 4 -114 9 -125 11 -11 3 -31 1 -45 -5z"/>
</g>
</svg>
